%TF.GenerationSoftware,KiCad,Pcbnew,9.0.1*%
%TF.CreationDate,2025-05-31T16:56:00-05:00*%
%TF.ProjectId,ME 433 HW15 V1,4d452034-3333-4204-9857-31352056312e,rev?*%
%TF.SameCoordinates,Original*%
%TF.FileFunction,Legend,Top*%
%TF.FilePolarity,Positive*%
%FSLAX46Y46*%
G04 Gerber Fmt 4.6, Leading zero omitted, Abs format (unit mm)*
G04 Created by KiCad (PCBNEW 9.0.1) date 2025-05-31 16:56:00*
%MOMM*%
%LPD*%
G01*
G04 APERTURE LIST*
%ADD10C,0.150000*%
%ADD11C,0.120000*%
G04 APERTURE END LIST*
D10*
X125908207Y-68274580D02*
X125860588Y-68322200D01*
X125860588Y-68322200D02*
X125717731Y-68369819D01*
X125717731Y-68369819D02*
X125622493Y-68369819D01*
X125622493Y-68369819D02*
X125479636Y-68322200D01*
X125479636Y-68322200D02*
X125384398Y-68226961D01*
X125384398Y-68226961D02*
X125336779Y-68131723D01*
X125336779Y-68131723D02*
X125289160Y-67941247D01*
X125289160Y-67941247D02*
X125289160Y-67798390D01*
X125289160Y-67798390D02*
X125336779Y-67607914D01*
X125336779Y-67607914D02*
X125384398Y-67512676D01*
X125384398Y-67512676D02*
X125479636Y-67417438D01*
X125479636Y-67417438D02*
X125622493Y-67369819D01*
X125622493Y-67369819D02*
X125717731Y-67369819D01*
X125717731Y-67369819D02*
X125860588Y-67417438D01*
X125860588Y-67417438D02*
X125908207Y-67465057D01*
X126479636Y-68369819D02*
X126384398Y-68322200D01*
X126384398Y-68322200D02*
X126336779Y-68274580D01*
X126336779Y-68274580D02*
X126289160Y-68179342D01*
X126289160Y-68179342D02*
X126289160Y-67893628D01*
X126289160Y-67893628D02*
X126336779Y-67798390D01*
X126336779Y-67798390D02*
X126384398Y-67750771D01*
X126384398Y-67750771D02*
X126479636Y-67703152D01*
X126479636Y-67703152D02*
X126622493Y-67703152D01*
X126622493Y-67703152D02*
X126717731Y-67750771D01*
X126717731Y-67750771D02*
X126765350Y-67798390D01*
X126765350Y-67798390D02*
X126812969Y-67893628D01*
X126812969Y-67893628D02*
X126812969Y-68179342D01*
X126812969Y-68179342D02*
X126765350Y-68274580D01*
X126765350Y-68274580D02*
X126717731Y-68322200D01*
X126717731Y-68322200D02*
X126622493Y-68369819D01*
X126622493Y-68369819D02*
X126479636Y-68369819D01*
X127384398Y-68369819D02*
X127289160Y-68322200D01*
X127289160Y-68322200D02*
X127241541Y-68226961D01*
X127241541Y-68226961D02*
X127241541Y-67369819D01*
X128146303Y-68322200D02*
X128051065Y-68369819D01*
X128051065Y-68369819D02*
X127860589Y-68369819D01*
X127860589Y-68369819D02*
X127765351Y-68322200D01*
X127765351Y-68322200D02*
X127717732Y-68226961D01*
X127717732Y-68226961D02*
X127717732Y-67846009D01*
X127717732Y-67846009D02*
X127765351Y-67750771D01*
X127765351Y-67750771D02*
X127860589Y-67703152D01*
X127860589Y-67703152D02*
X128051065Y-67703152D01*
X128051065Y-67703152D02*
X128146303Y-67750771D01*
X128146303Y-67750771D02*
X128193922Y-67846009D01*
X128193922Y-67846009D02*
X128193922Y-67941247D01*
X128193922Y-67941247D02*
X127717732Y-68036485D01*
X129384399Y-68369819D02*
X129384399Y-67369819D01*
X129384399Y-67369819D02*
X129717732Y-68084104D01*
X129717732Y-68084104D02*
X130051065Y-67369819D01*
X130051065Y-67369819D02*
X130051065Y-68369819D01*
X130527256Y-67846009D02*
X130860589Y-67846009D01*
X131003446Y-68369819D02*
X130527256Y-68369819D01*
X130527256Y-68369819D02*
X130527256Y-67369819D01*
X130527256Y-67369819D02*
X131003446Y-67369819D01*
X131860589Y-67703152D02*
X131860589Y-68369819D01*
X131622494Y-67322200D02*
X131384399Y-68036485D01*
X131384399Y-68036485D02*
X132003446Y-68036485D01*
X132289161Y-67369819D02*
X132908208Y-67369819D01*
X132908208Y-67369819D02*
X132574875Y-67750771D01*
X132574875Y-67750771D02*
X132717732Y-67750771D01*
X132717732Y-67750771D02*
X132812970Y-67798390D01*
X132812970Y-67798390D02*
X132860589Y-67846009D01*
X132860589Y-67846009D02*
X132908208Y-67941247D01*
X132908208Y-67941247D02*
X132908208Y-68179342D01*
X132908208Y-68179342D02*
X132860589Y-68274580D01*
X132860589Y-68274580D02*
X132812970Y-68322200D01*
X132812970Y-68322200D02*
X132717732Y-68369819D01*
X132717732Y-68369819D02*
X132432018Y-68369819D01*
X132432018Y-68369819D02*
X132336780Y-68322200D01*
X132336780Y-68322200D02*
X132289161Y-68274580D01*
X133241542Y-67369819D02*
X133860589Y-67369819D01*
X133860589Y-67369819D02*
X133527256Y-67750771D01*
X133527256Y-67750771D02*
X133670113Y-67750771D01*
X133670113Y-67750771D02*
X133765351Y-67798390D01*
X133765351Y-67798390D02*
X133812970Y-67846009D01*
X133812970Y-67846009D02*
X133860589Y-67941247D01*
X133860589Y-67941247D02*
X133860589Y-68179342D01*
X133860589Y-68179342D02*
X133812970Y-68274580D01*
X133812970Y-68274580D02*
X133765351Y-68322200D01*
X133765351Y-68322200D02*
X133670113Y-68369819D01*
X133670113Y-68369819D02*
X133384399Y-68369819D01*
X133384399Y-68369819D02*
X133289161Y-68322200D01*
X133289161Y-68322200D02*
X133241542Y-68274580D01*
X106261905Y-63884819D02*
X106261905Y-62884819D01*
X106261905Y-62884819D02*
X106500000Y-62884819D01*
X106500000Y-62884819D02*
X106642857Y-62932438D01*
X106642857Y-62932438D02*
X106738095Y-63027676D01*
X106738095Y-63027676D02*
X106785714Y-63122914D01*
X106785714Y-63122914D02*
X106833333Y-63313390D01*
X106833333Y-63313390D02*
X106833333Y-63456247D01*
X106833333Y-63456247D02*
X106785714Y-63646723D01*
X106785714Y-63646723D02*
X106738095Y-63741961D01*
X106738095Y-63741961D02*
X106642857Y-63837200D01*
X106642857Y-63837200D02*
X106500000Y-63884819D01*
X106500000Y-63884819D02*
X106261905Y-63884819D01*
X107785714Y-63884819D02*
X107214286Y-63884819D01*
X107500000Y-63884819D02*
X107500000Y-62884819D01*
X107500000Y-62884819D02*
X107404762Y-63027676D01*
X107404762Y-63027676D02*
X107309524Y-63122914D01*
X107309524Y-63122914D02*
X107214286Y-63170533D01*
X112308333Y-59474819D02*
X111975000Y-58998628D01*
X111736905Y-59474819D02*
X111736905Y-58474819D01*
X111736905Y-58474819D02*
X112117857Y-58474819D01*
X112117857Y-58474819D02*
X112213095Y-58522438D01*
X112213095Y-58522438D02*
X112260714Y-58570057D01*
X112260714Y-58570057D02*
X112308333Y-58665295D01*
X112308333Y-58665295D02*
X112308333Y-58808152D01*
X112308333Y-58808152D02*
X112260714Y-58903390D01*
X112260714Y-58903390D02*
X112213095Y-58951009D01*
X112213095Y-58951009D02*
X112117857Y-58998628D01*
X112117857Y-58998628D02*
X111736905Y-58998628D01*
X113260714Y-59474819D02*
X112689286Y-59474819D01*
X112975000Y-59474819D02*
X112975000Y-58474819D01*
X112975000Y-58474819D02*
X112879762Y-58617676D01*
X112879762Y-58617676D02*
X112784524Y-58712914D01*
X112784524Y-58712914D02*
X112689286Y-58760533D01*
X132333333Y-80974819D02*
X132000000Y-80498628D01*
X131761905Y-80974819D02*
X131761905Y-79974819D01*
X131761905Y-79974819D02*
X132142857Y-79974819D01*
X132142857Y-79974819D02*
X132238095Y-80022438D01*
X132238095Y-80022438D02*
X132285714Y-80070057D01*
X132285714Y-80070057D02*
X132333333Y-80165295D01*
X132333333Y-80165295D02*
X132333333Y-80308152D01*
X132333333Y-80308152D02*
X132285714Y-80403390D01*
X132285714Y-80403390D02*
X132238095Y-80451009D01*
X132238095Y-80451009D02*
X132142857Y-80498628D01*
X132142857Y-80498628D02*
X131761905Y-80498628D01*
X133190476Y-80308152D02*
X133190476Y-80974819D01*
X132952381Y-79927200D02*
X132714286Y-80641485D01*
X132714286Y-80641485D02*
X133333333Y-80641485D01*
X125833333Y-80974819D02*
X125500000Y-80498628D01*
X125261905Y-80974819D02*
X125261905Y-79974819D01*
X125261905Y-79974819D02*
X125642857Y-79974819D01*
X125642857Y-79974819D02*
X125738095Y-80022438D01*
X125738095Y-80022438D02*
X125785714Y-80070057D01*
X125785714Y-80070057D02*
X125833333Y-80165295D01*
X125833333Y-80165295D02*
X125833333Y-80308152D01*
X125833333Y-80308152D02*
X125785714Y-80403390D01*
X125785714Y-80403390D02*
X125738095Y-80451009D01*
X125738095Y-80451009D02*
X125642857Y-80498628D01*
X125642857Y-80498628D02*
X125261905Y-80498628D01*
X126166667Y-79974819D02*
X126785714Y-79974819D01*
X126785714Y-79974819D02*
X126452381Y-80355771D01*
X126452381Y-80355771D02*
X126595238Y-80355771D01*
X126595238Y-80355771D02*
X126690476Y-80403390D01*
X126690476Y-80403390D02*
X126738095Y-80451009D01*
X126738095Y-80451009D02*
X126785714Y-80546247D01*
X126785714Y-80546247D02*
X126785714Y-80784342D01*
X126785714Y-80784342D02*
X126738095Y-80879580D01*
X126738095Y-80879580D02*
X126690476Y-80927200D01*
X126690476Y-80927200D02*
X126595238Y-80974819D01*
X126595238Y-80974819D02*
X126309524Y-80974819D01*
X126309524Y-80974819D02*
X126214286Y-80927200D01*
X126214286Y-80927200D02*
X126166667Y-80879580D01*
X126308333Y-70974819D02*
X125975000Y-70498628D01*
X125736905Y-70974819D02*
X125736905Y-69974819D01*
X125736905Y-69974819D02*
X126117857Y-69974819D01*
X126117857Y-69974819D02*
X126213095Y-70022438D01*
X126213095Y-70022438D02*
X126260714Y-70070057D01*
X126260714Y-70070057D02*
X126308333Y-70165295D01*
X126308333Y-70165295D02*
X126308333Y-70308152D01*
X126308333Y-70308152D02*
X126260714Y-70403390D01*
X126260714Y-70403390D02*
X126213095Y-70451009D01*
X126213095Y-70451009D02*
X126117857Y-70498628D01*
X126117857Y-70498628D02*
X125736905Y-70498628D01*
X126689286Y-70070057D02*
X126736905Y-70022438D01*
X126736905Y-70022438D02*
X126832143Y-69974819D01*
X126832143Y-69974819D02*
X127070238Y-69974819D01*
X127070238Y-69974819D02*
X127165476Y-70022438D01*
X127165476Y-70022438D02*
X127213095Y-70070057D01*
X127213095Y-70070057D02*
X127260714Y-70165295D01*
X127260714Y-70165295D02*
X127260714Y-70260533D01*
X127260714Y-70260533D02*
X127213095Y-70403390D01*
X127213095Y-70403390D02*
X126641667Y-70974819D01*
X126641667Y-70974819D02*
X127260714Y-70974819D01*
X118809524Y-71554819D02*
X118809524Y-70554819D01*
X118809524Y-70554819D02*
X119142857Y-71269104D01*
X119142857Y-71269104D02*
X119476190Y-70554819D01*
X119476190Y-70554819D02*
X119476190Y-71554819D01*
X119809524Y-70554819D02*
X120380952Y-70554819D01*
X120095238Y-71554819D02*
X120095238Y-70554819D01*
X121238095Y-71554819D02*
X120666667Y-71554819D01*
X120952381Y-71554819D02*
X120952381Y-70554819D01*
X120952381Y-70554819D02*
X120857143Y-70697676D01*
X120857143Y-70697676D02*
X120761905Y-70792914D01*
X120761905Y-70792914D02*
X120666667Y-70840533D01*
X119833333Y-62904819D02*
X119357143Y-62904819D01*
X119357143Y-62904819D02*
X119357143Y-61904819D01*
X120690476Y-62904819D02*
X120119048Y-62904819D01*
X120404762Y-62904819D02*
X120404762Y-61904819D01*
X120404762Y-61904819D02*
X120309524Y-62047676D01*
X120309524Y-62047676D02*
X120214286Y-62142914D01*
X120214286Y-62142914D02*
X120119048Y-62190533D01*
X105691666Y-66659819D02*
X105691666Y-67374104D01*
X105691666Y-67374104D02*
X105644047Y-67516961D01*
X105644047Y-67516961D02*
X105548809Y-67612200D01*
X105548809Y-67612200D02*
X105405952Y-67659819D01*
X105405952Y-67659819D02*
X105310714Y-67659819D01*
X106691666Y-67659819D02*
X106120238Y-67659819D01*
X106405952Y-67659819D02*
X106405952Y-66659819D01*
X106405952Y-66659819D02*
X106310714Y-66802676D01*
X106310714Y-66802676D02*
X106215476Y-66897914D01*
X106215476Y-66897914D02*
X106120238Y-66945533D01*
X125411905Y-66454819D02*
X125411905Y-65454819D01*
X125411905Y-65454819D02*
X125650000Y-65454819D01*
X125650000Y-65454819D02*
X125792857Y-65502438D01*
X125792857Y-65502438D02*
X125888095Y-65597676D01*
X125888095Y-65597676D02*
X125935714Y-65692914D01*
X125935714Y-65692914D02*
X125983333Y-65883390D01*
X125983333Y-65883390D02*
X125983333Y-66026247D01*
X125983333Y-66026247D02*
X125935714Y-66216723D01*
X125935714Y-66216723D02*
X125888095Y-66311961D01*
X125888095Y-66311961D02*
X125792857Y-66407200D01*
X125792857Y-66407200D02*
X125650000Y-66454819D01*
X125650000Y-66454819D02*
X125411905Y-66454819D01*
X126364286Y-65550057D02*
X126411905Y-65502438D01*
X126411905Y-65502438D02*
X126507143Y-65454819D01*
X126507143Y-65454819D02*
X126745238Y-65454819D01*
X126745238Y-65454819D02*
X126840476Y-65502438D01*
X126840476Y-65502438D02*
X126888095Y-65550057D01*
X126888095Y-65550057D02*
X126935714Y-65645295D01*
X126935714Y-65645295D02*
X126935714Y-65740533D01*
X126935714Y-65740533D02*
X126888095Y-65883390D01*
X126888095Y-65883390D02*
X126316667Y-66454819D01*
X126316667Y-66454819D02*
X126935714Y-66454819D01*
X114333333Y-81109580D02*
X114285714Y-81157200D01*
X114285714Y-81157200D02*
X114142857Y-81204819D01*
X114142857Y-81204819D02*
X114047619Y-81204819D01*
X114047619Y-81204819D02*
X113904762Y-81157200D01*
X113904762Y-81157200D02*
X113809524Y-81061961D01*
X113809524Y-81061961D02*
X113761905Y-80966723D01*
X113761905Y-80966723D02*
X113714286Y-80776247D01*
X113714286Y-80776247D02*
X113714286Y-80633390D01*
X113714286Y-80633390D02*
X113761905Y-80442914D01*
X113761905Y-80442914D02*
X113809524Y-80347676D01*
X113809524Y-80347676D02*
X113904762Y-80252438D01*
X113904762Y-80252438D02*
X114047619Y-80204819D01*
X114047619Y-80204819D02*
X114142857Y-80204819D01*
X114142857Y-80204819D02*
X114285714Y-80252438D01*
X114285714Y-80252438D02*
X114333333Y-80300057D01*
X114714286Y-80300057D02*
X114761905Y-80252438D01*
X114761905Y-80252438D02*
X114857143Y-80204819D01*
X114857143Y-80204819D02*
X115095238Y-80204819D01*
X115095238Y-80204819D02*
X115190476Y-80252438D01*
X115190476Y-80252438D02*
X115238095Y-80300057D01*
X115238095Y-80300057D02*
X115285714Y-80395295D01*
X115285714Y-80395295D02*
X115285714Y-80490533D01*
X115285714Y-80490533D02*
X115238095Y-80633390D01*
X115238095Y-80633390D02*
X114666667Y-81204819D01*
X114666667Y-81204819D02*
X115285714Y-81204819D01*
X105878221Y-81109580D02*
X105830602Y-81157200D01*
X105830602Y-81157200D02*
X105687745Y-81204819D01*
X105687745Y-81204819D02*
X105592507Y-81204819D01*
X105592507Y-81204819D02*
X105449650Y-81157200D01*
X105449650Y-81157200D02*
X105354412Y-81061961D01*
X105354412Y-81061961D02*
X105306793Y-80966723D01*
X105306793Y-80966723D02*
X105259174Y-80776247D01*
X105259174Y-80776247D02*
X105259174Y-80633390D01*
X105259174Y-80633390D02*
X105306793Y-80442914D01*
X105306793Y-80442914D02*
X105354412Y-80347676D01*
X105354412Y-80347676D02*
X105449650Y-80252438D01*
X105449650Y-80252438D02*
X105592507Y-80204819D01*
X105592507Y-80204819D02*
X105687745Y-80204819D01*
X105687745Y-80204819D02*
X105830602Y-80252438D01*
X105830602Y-80252438D02*
X105878221Y-80300057D01*
X106830602Y-81204819D02*
X106259174Y-81204819D01*
X106544888Y-81204819D02*
X106544888Y-80204819D01*
X106544888Y-80204819D02*
X106449650Y-80347676D01*
X106449650Y-80347676D02*
X106354412Y-80442914D01*
X106354412Y-80442914D02*
X106259174Y-80490533D01*
D11*
%TO.C,D1*%
X106200000Y-62735000D02*
X108660000Y-62735000D01*
X108660000Y-61265000D02*
X106200000Y-61265000D01*
X108660000Y-62735000D02*
X108660000Y-61265000D01*
%TO.C,R1*%
X112264758Y-60015000D02*
X112685242Y-60015000D01*
X112264758Y-63985000D02*
X112685242Y-63985000D01*
%TO.C,R4*%
X132289758Y-81515000D02*
X132710242Y-81515000D01*
X132289758Y-85485000D02*
X132710242Y-85485000D01*
%TO.C,R3*%
X125789758Y-81515000D02*
X126210242Y-81515000D01*
X125789758Y-85485000D02*
X126210242Y-85485000D01*
%TO.C,R2*%
X126264758Y-71515000D02*
X126685242Y-71515000D01*
X126264758Y-75485000D02*
X126685242Y-75485000D01*
%TO.C,MT1*%
X120000000Y-71940000D02*
X119200000Y-71940000D01*
X120000000Y-71940000D02*
X120800000Y-71940000D01*
X120000000Y-75060000D02*
X119200000Y-75060000D01*
X120000000Y-75060000D02*
X120800000Y-75060000D01*
X118700000Y-71990000D02*
X118460000Y-71660000D01*
X118940000Y-71660000D01*
X118700000Y-71990000D01*
G36*
X118700000Y-71990000D02*
G01*
X118460000Y-71660000D01*
X118940000Y-71660000D01*
X118700000Y-71990000D01*
G37*
%TO.C,L1*%
X119600378Y-63440000D02*
X120399622Y-63440000D01*
X119600378Y-64560000D02*
X120399622Y-64560000D01*
%TO.C,J1*%
X104695000Y-71245000D02*
X104695000Y-76385000D01*
X104695000Y-71245000D02*
X107355000Y-71245000D01*
X104695000Y-76385000D02*
X107355000Y-76385000D01*
X106025000Y-68645000D02*
X107355000Y-68645000D01*
X107355000Y-68645000D02*
X107355000Y-69975000D01*
X107355000Y-71245000D02*
X107355000Y-76385000D01*
%TO.C,D2*%
X128510000Y-65000000D02*
X128510000Y-63000000D01*
X128510000Y-65000000D02*
X124500000Y-65000000D01*
X128510000Y-63000000D02*
X124500000Y-63000000D01*
%TO.C,C2*%
X111695225Y-83025000D02*
X112195225Y-83025000D01*
X111945225Y-82775000D02*
X111945225Y-83275000D01*
X114500000Y-81920000D02*
X114500000Y-83460000D01*
X114500000Y-85540000D02*
X114500000Y-87080000D01*
X114540000Y-81920000D02*
X114540000Y-83460000D01*
X114540000Y-85540000D02*
X114540000Y-87080000D01*
X114580000Y-81921000D02*
X114580000Y-83460000D01*
X114580000Y-85540000D02*
X114580000Y-87079000D01*
X114620000Y-81923000D02*
X114620000Y-83460000D01*
X114620000Y-85540000D02*
X114620000Y-87077000D01*
X114660000Y-81925000D02*
X114660000Y-83460000D01*
X114660000Y-85540000D02*
X114660000Y-87075000D01*
X114700000Y-81928000D02*
X114700000Y-83460000D01*
X114700000Y-85540000D02*
X114700000Y-87072000D01*
X114740000Y-81931000D02*
X114740000Y-83460000D01*
X114740000Y-85540000D02*
X114740000Y-87069000D01*
X114780000Y-81935000D02*
X114780000Y-83460000D01*
X114780000Y-85540000D02*
X114780000Y-87065000D01*
X114820000Y-81940000D02*
X114820000Y-83460000D01*
X114820000Y-85540000D02*
X114820000Y-87060000D01*
X114860000Y-81945000D02*
X114860000Y-83460000D01*
X114860000Y-85540000D02*
X114860000Y-87055000D01*
X114900000Y-81951000D02*
X114900000Y-83460000D01*
X114900000Y-85540000D02*
X114900000Y-87049000D01*
X114940000Y-81957000D02*
X114940000Y-83460000D01*
X114940000Y-85540000D02*
X114940000Y-87043000D01*
X114980000Y-81964000D02*
X114980000Y-83460000D01*
X114980000Y-85540000D02*
X114980000Y-87036000D01*
X115020000Y-81972000D02*
X115020000Y-83460000D01*
X115020000Y-85540000D02*
X115020000Y-87028000D01*
X115060000Y-81981000D02*
X115060000Y-83460000D01*
X115060000Y-85540000D02*
X115060000Y-87019000D01*
X115100000Y-81990000D02*
X115100000Y-83460000D01*
X115100000Y-85540000D02*
X115100000Y-87010000D01*
X115140000Y-81999000D02*
X115140000Y-83460000D01*
X115140000Y-85540000D02*
X115140000Y-87001000D01*
X115180000Y-82010000D02*
X115180000Y-83460000D01*
X115180000Y-85540000D02*
X115180000Y-86990000D01*
X115220000Y-82021000D02*
X115220000Y-83460000D01*
X115220000Y-85540000D02*
X115220000Y-86979000D01*
X115260000Y-82033000D02*
X115260000Y-83460000D01*
X115260000Y-85540000D02*
X115260000Y-86967000D01*
X115300000Y-82045000D02*
X115300000Y-83460000D01*
X115300000Y-85540000D02*
X115300000Y-86955000D01*
X115340000Y-82058000D02*
X115340000Y-83460000D01*
X115340000Y-85540000D02*
X115340000Y-86942000D01*
X115380000Y-82072000D02*
X115380000Y-83460000D01*
X115380000Y-85540000D02*
X115380000Y-86928000D01*
X115420000Y-82087000D02*
X115420000Y-83460000D01*
X115420000Y-85540000D02*
X115420000Y-86913000D01*
X115460000Y-82102000D02*
X115460000Y-83460000D01*
X115460000Y-85540000D02*
X115460000Y-86898000D01*
X115500000Y-82118000D02*
X115500000Y-83460000D01*
X115500000Y-85540000D02*
X115500000Y-86882000D01*
X115540000Y-82135000D02*
X115540000Y-83460000D01*
X115540000Y-85540000D02*
X115540000Y-86865000D01*
X115580000Y-82153000D02*
X115580000Y-83460000D01*
X115580000Y-85540000D02*
X115580000Y-86847000D01*
X115620000Y-82171000D02*
X115620000Y-83460000D01*
X115620000Y-85540000D02*
X115620000Y-86829000D01*
X115660000Y-82191000D02*
X115660000Y-83460000D01*
X115660000Y-85540000D02*
X115660000Y-86809000D01*
X115700000Y-82211000D02*
X115700000Y-83460000D01*
X115700000Y-85540000D02*
X115700000Y-86789000D01*
X115740000Y-82232000D02*
X115740000Y-83460000D01*
X115740000Y-85540000D02*
X115740000Y-86768000D01*
X115780000Y-82254000D02*
X115780000Y-83460000D01*
X115780000Y-85540000D02*
X115780000Y-86746000D01*
X115820000Y-82277000D02*
X115820000Y-83460000D01*
X115820000Y-85540000D02*
X115820000Y-86723000D01*
X115860000Y-82301000D02*
X115860000Y-83460000D01*
X115860000Y-85540000D02*
X115860000Y-86699000D01*
X115900000Y-82325000D02*
X115900000Y-83460000D01*
X115900000Y-85540000D02*
X115900000Y-86675000D01*
X115940000Y-82351000D02*
X115940000Y-83460000D01*
X115940000Y-85540000D02*
X115940000Y-86649000D01*
X115980000Y-82378000D02*
X115980000Y-83460000D01*
X115980000Y-85540000D02*
X115980000Y-86622000D01*
X116020000Y-82406000D02*
X116020000Y-83460000D01*
X116020000Y-85540000D02*
X116020000Y-86594000D01*
X116060000Y-82435000D02*
X116060000Y-83460000D01*
X116060000Y-85540000D02*
X116060000Y-86565000D01*
X116100000Y-82465000D02*
X116100000Y-83460000D01*
X116100000Y-85540000D02*
X116100000Y-86535000D01*
X116140000Y-82497000D02*
X116140000Y-83460000D01*
X116140000Y-85540000D02*
X116140000Y-86503000D01*
X116180000Y-82530000D02*
X116180000Y-83460000D01*
X116180000Y-85540000D02*
X116180000Y-86470000D01*
X116220000Y-82564000D02*
X116220000Y-83460000D01*
X116220000Y-85540000D02*
X116220000Y-86436000D01*
X116260000Y-82599000D02*
X116260000Y-83460000D01*
X116260000Y-85540000D02*
X116260000Y-86401000D01*
X116300000Y-82636000D02*
X116300000Y-83460000D01*
X116300000Y-85540000D02*
X116300000Y-86364000D01*
X116340000Y-82675000D02*
X116340000Y-83460000D01*
X116340000Y-85540000D02*
X116340000Y-86325000D01*
X116380000Y-82715000D02*
X116380000Y-83460000D01*
X116380000Y-85540000D02*
X116380000Y-86285000D01*
X116420000Y-82757000D02*
X116420000Y-83460000D01*
X116420000Y-85540000D02*
X116420000Y-86243000D01*
X116460000Y-82801000D02*
X116460000Y-83460000D01*
X116460000Y-85540000D02*
X116460000Y-86199000D01*
X116500000Y-82848000D02*
X116500000Y-83460000D01*
X116500000Y-85540000D02*
X116500000Y-86152000D01*
X116540000Y-82896000D02*
X116540000Y-86104000D01*
X116580000Y-82947000D02*
X116580000Y-86053000D01*
X116620000Y-83001000D02*
X116620000Y-85999000D01*
X116660000Y-83057000D02*
X116660000Y-85943000D01*
X116700000Y-83117000D02*
X116700000Y-85883000D01*
X116740000Y-83181000D02*
X116740000Y-85819000D01*
X116780000Y-83249000D02*
X116780000Y-85751000D01*
X116820000Y-83323000D02*
X116820000Y-85677000D01*
X116860000Y-83402000D02*
X116860000Y-85598000D01*
X116900000Y-83489000D02*
X116900000Y-85511000D01*
X116940000Y-83586000D02*
X116940000Y-85414000D01*
X116980000Y-83695000D02*
X116980000Y-85305000D01*
X117020000Y-83823000D02*
X117020000Y-85177000D01*
X117060000Y-83983000D02*
X117060000Y-85017000D01*
X117100000Y-84217000D02*
X117100000Y-84783000D01*
X117120000Y-84500000D02*
G75*
G02*
X111880000Y-84500000I-2620000J0D01*
G01*
X111880000Y-84500000D02*
G75*
G02*
X117120000Y-84500000I2620000J0D01*
G01*
%TO.C,C1*%
X103240113Y-83025000D02*
X103740113Y-83025000D01*
X103490113Y-82775000D02*
X103490113Y-83275000D01*
X106044888Y-81920000D02*
X106044888Y-83460000D01*
X106044888Y-85540000D02*
X106044888Y-87080000D01*
X106084888Y-81920000D02*
X106084888Y-83460000D01*
X106084888Y-85540000D02*
X106084888Y-87080000D01*
X106124888Y-81921000D02*
X106124888Y-83460000D01*
X106124888Y-85540000D02*
X106124888Y-87079000D01*
X106164888Y-81923000D02*
X106164888Y-83460000D01*
X106164888Y-85540000D02*
X106164888Y-87077000D01*
X106204888Y-81925000D02*
X106204888Y-83460000D01*
X106204888Y-85540000D02*
X106204888Y-87075000D01*
X106244888Y-81928000D02*
X106244888Y-83460000D01*
X106244888Y-85540000D02*
X106244888Y-87072000D01*
X106284888Y-81931000D02*
X106284888Y-83460000D01*
X106284888Y-85540000D02*
X106284888Y-87069000D01*
X106324888Y-81935000D02*
X106324888Y-83460000D01*
X106324888Y-85540000D02*
X106324888Y-87065000D01*
X106364888Y-81940000D02*
X106364888Y-83460000D01*
X106364888Y-85540000D02*
X106364888Y-87060000D01*
X106404888Y-81945000D02*
X106404888Y-83460000D01*
X106404888Y-85540000D02*
X106404888Y-87055000D01*
X106444888Y-81951000D02*
X106444888Y-83460000D01*
X106444888Y-85540000D02*
X106444888Y-87049000D01*
X106484888Y-81957000D02*
X106484888Y-83460000D01*
X106484888Y-85540000D02*
X106484888Y-87043000D01*
X106524888Y-81964000D02*
X106524888Y-83460000D01*
X106524888Y-85540000D02*
X106524888Y-87036000D01*
X106564888Y-81972000D02*
X106564888Y-83460000D01*
X106564888Y-85540000D02*
X106564888Y-87028000D01*
X106604888Y-81981000D02*
X106604888Y-83460000D01*
X106604888Y-85540000D02*
X106604888Y-87019000D01*
X106644888Y-81990000D02*
X106644888Y-83460000D01*
X106644888Y-85540000D02*
X106644888Y-87010000D01*
X106684888Y-81999000D02*
X106684888Y-83460000D01*
X106684888Y-85540000D02*
X106684888Y-87001000D01*
X106724888Y-82010000D02*
X106724888Y-83460000D01*
X106724888Y-85540000D02*
X106724888Y-86990000D01*
X106764888Y-82021000D02*
X106764888Y-83460000D01*
X106764888Y-85540000D02*
X106764888Y-86979000D01*
X106804888Y-82033000D02*
X106804888Y-83460000D01*
X106804888Y-85540000D02*
X106804888Y-86967000D01*
X106844888Y-82045000D02*
X106844888Y-83460000D01*
X106844888Y-85540000D02*
X106844888Y-86955000D01*
X106884888Y-82058000D02*
X106884888Y-83460000D01*
X106884888Y-85540000D02*
X106884888Y-86942000D01*
X106924888Y-82072000D02*
X106924888Y-83460000D01*
X106924888Y-85540000D02*
X106924888Y-86928000D01*
X106964888Y-82087000D02*
X106964888Y-83460000D01*
X106964888Y-85540000D02*
X106964888Y-86913000D01*
X107004888Y-82102000D02*
X107004888Y-83460000D01*
X107004888Y-85540000D02*
X107004888Y-86898000D01*
X107044888Y-82118000D02*
X107044888Y-83460000D01*
X107044888Y-85540000D02*
X107044888Y-86882000D01*
X107084888Y-82135000D02*
X107084888Y-83460000D01*
X107084888Y-85540000D02*
X107084888Y-86865000D01*
X107124888Y-82153000D02*
X107124888Y-83460000D01*
X107124888Y-85540000D02*
X107124888Y-86847000D01*
X107164888Y-82171000D02*
X107164888Y-83460000D01*
X107164888Y-85540000D02*
X107164888Y-86829000D01*
X107204888Y-82191000D02*
X107204888Y-83460000D01*
X107204888Y-85540000D02*
X107204888Y-86809000D01*
X107244888Y-82211000D02*
X107244888Y-83460000D01*
X107244888Y-85540000D02*
X107244888Y-86789000D01*
X107284888Y-82232000D02*
X107284888Y-83460000D01*
X107284888Y-85540000D02*
X107284888Y-86768000D01*
X107324888Y-82254000D02*
X107324888Y-83460000D01*
X107324888Y-85540000D02*
X107324888Y-86746000D01*
X107364888Y-82277000D02*
X107364888Y-83460000D01*
X107364888Y-85540000D02*
X107364888Y-86723000D01*
X107404888Y-82301000D02*
X107404888Y-83460000D01*
X107404888Y-85540000D02*
X107404888Y-86699000D01*
X107444888Y-82325000D02*
X107444888Y-83460000D01*
X107444888Y-85540000D02*
X107444888Y-86675000D01*
X107484888Y-82351000D02*
X107484888Y-83460000D01*
X107484888Y-85540000D02*
X107484888Y-86649000D01*
X107524888Y-82378000D02*
X107524888Y-83460000D01*
X107524888Y-85540000D02*
X107524888Y-86622000D01*
X107564888Y-82406000D02*
X107564888Y-83460000D01*
X107564888Y-85540000D02*
X107564888Y-86594000D01*
X107604888Y-82435000D02*
X107604888Y-83460000D01*
X107604888Y-85540000D02*
X107604888Y-86565000D01*
X107644888Y-82465000D02*
X107644888Y-83460000D01*
X107644888Y-85540000D02*
X107644888Y-86535000D01*
X107684888Y-82497000D02*
X107684888Y-83460000D01*
X107684888Y-85540000D02*
X107684888Y-86503000D01*
X107724888Y-82530000D02*
X107724888Y-83460000D01*
X107724888Y-85540000D02*
X107724888Y-86470000D01*
X107764888Y-82564000D02*
X107764888Y-83460000D01*
X107764888Y-85540000D02*
X107764888Y-86436000D01*
X107804888Y-82599000D02*
X107804888Y-83460000D01*
X107804888Y-85540000D02*
X107804888Y-86401000D01*
X107844888Y-82636000D02*
X107844888Y-83460000D01*
X107844888Y-85540000D02*
X107844888Y-86364000D01*
X107884888Y-82675000D02*
X107884888Y-83460000D01*
X107884888Y-85540000D02*
X107884888Y-86325000D01*
X107924888Y-82715000D02*
X107924888Y-83460000D01*
X107924888Y-85540000D02*
X107924888Y-86285000D01*
X107964888Y-82757000D02*
X107964888Y-83460000D01*
X107964888Y-85540000D02*
X107964888Y-86243000D01*
X108004888Y-82801000D02*
X108004888Y-83460000D01*
X108004888Y-85540000D02*
X108004888Y-86199000D01*
X108044888Y-82848000D02*
X108044888Y-83460000D01*
X108044888Y-85540000D02*
X108044888Y-86152000D01*
X108084888Y-82896000D02*
X108084888Y-86104000D01*
X108124888Y-82947000D02*
X108124888Y-86053000D01*
X108164888Y-83001000D02*
X108164888Y-85999000D01*
X108204888Y-83057000D02*
X108204888Y-85943000D01*
X108244888Y-83117000D02*
X108244888Y-85883000D01*
X108284888Y-83181000D02*
X108284888Y-85819000D01*
X108324888Y-83249000D02*
X108324888Y-85751000D01*
X108364888Y-83323000D02*
X108364888Y-85677000D01*
X108404888Y-83402000D02*
X108404888Y-85598000D01*
X108444888Y-83489000D02*
X108444888Y-85511000D01*
X108484888Y-83586000D02*
X108484888Y-85414000D01*
X108524888Y-83695000D02*
X108524888Y-85305000D01*
X108564888Y-83823000D02*
X108564888Y-85177000D01*
X108604888Y-83983000D02*
X108604888Y-85017000D01*
X108644888Y-84217000D02*
X108644888Y-84783000D01*
X108664888Y-84500000D02*
G75*
G02*
X103424888Y-84500000I-2620000J0D01*
G01*
X103424888Y-84500000D02*
G75*
G02*
X108664888Y-84500000I2620000J0D01*
G01*
%TD*%
M02*
