%TF.GenerationSoftware,KiCad,Pcbnew,9.0.1*%
%TF.CreationDate,2025-05-31T16:56:00-05:00*%
%TF.ProjectId,ME 433 HW15 V1,4d452034-3333-4204-9857-31352056312e,rev?*%
%TF.SameCoordinates,Original*%
%TF.FileFunction,Copper,L1,Top*%
%TF.FilePolarity,Positive*%
%FSLAX46Y46*%
G04 Gerber Fmt 4.6, Leading zero omitted, Abs format (unit mm)*
G04 Created by KiCad (PCBNEW 9.0.1) date 2025-05-31 16:56:00*
%MOMM*%
%LPD*%
G01*
G04 APERTURE LIST*
G04 Aperture macros list*
%AMRoundRect*
0 Rectangle with rounded corners*
0 $1 Rounding radius*
0 $2 $3 $4 $5 $6 $7 $8 $9 X,Y pos of 4 corners*
0 Add a 4 corners polygon primitive as box body*
4,1,4,$2,$3,$4,$5,$6,$7,$8,$9,$2,$3,0*
0 Add four circle primitives for the rounded corners*
1,1,$1+$1,$2,$3*
1,1,$1+$1,$4,$5*
1,1,$1+$1,$6,$7*
1,1,$1+$1,$8,$9*
0 Add four rect primitives between the rounded corners*
20,1,$1+$1,$2,$3,$4,$5,0*
20,1,$1+$1,$4,$5,$6,$7,0*
20,1,$1+$1,$6,$7,$8,$9,0*
20,1,$1+$1,$8,$9,$2,$3,0*%
G04 Aperture macros list end*
%TA.AperFunction,SMDPad,CuDef*%
%ADD10RoundRect,0.237500X0.287500X0.237500X-0.287500X0.237500X-0.287500X-0.237500X0.287500X-0.237500X0*%
%TD*%
%TA.AperFunction,SMDPad,CuDef*%
%ADD11RoundRect,0.250000X-0.350000X-1.775000X0.350000X-1.775000X0.350000X1.775000X-0.350000X1.775000X0*%
%TD*%
%TA.AperFunction,SMDPad,CuDef*%
%ADD12RoundRect,0.150000X-0.512500X-0.150000X0.512500X-0.150000X0.512500X0.150000X-0.512500X0.150000X0*%
%TD*%
%TA.AperFunction,SMDPad,CuDef*%
%ADD13RoundRect,0.218750X-0.218750X-0.381250X0.218750X-0.381250X0.218750X0.381250X-0.218750X0.381250X0*%
%TD*%
%TA.AperFunction,ComponentPad*%
%ADD14R,1.700000X1.700000*%
%TD*%
%TA.AperFunction,ComponentPad*%
%ADD15C,1.700000*%
%TD*%
%TA.AperFunction,SMDPad,CuDef*%
%ADD16RoundRect,0.225000X0.225000X0.375000X-0.225000X0.375000X-0.225000X-0.375000X0.225000X-0.375000X0*%
%TD*%
%TA.AperFunction,ComponentPad*%
%ADD17R,1.600000X1.600000*%
%TD*%
%TA.AperFunction,ComponentPad*%
%ADD18C,1.600000*%
%TD*%
%TA.AperFunction,ViaPad*%
%ADD19C,0.600000*%
%TD*%
%TA.AperFunction,Conductor*%
%ADD20C,0.200000*%
%TD*%
G04 APERTURE END LIST*
D10*
%TO.P,D1,2,A*%
%TO.N,+5V*%
X106125000Y-62000000D03*
%TO.P,D1,1,K*%
%TO.N,Net-(D1-K)*%
X107875000Y-62000000D03*
%TD*%
D11*
%TO.P,R1,1*%
%TO.N,Net-(D1-K)*%
X111450000Y-62000000D03*
%TO.P,R1,2*%
%TO.N,GND*%
X113500000Y-62000000D03*
%TD*%
%TO.P,R4,1*%
%TO.N,Net-(MT1-3-FB)*%
X131475000Y-83500000D03*
%TO.P,R4,2*%
%TO.N,GND*%
X133525000Y-83500000D03*
%TD*%
%TO.P,R3,1*%
%TO.N,+5V*%
X124975000Y-83500000D03*
%TO.P,R3,2*%
%TO.N,Net-(MT1-3-FB)*%
X127025000Y-83500000D03*
%TD*%
%TO.P,R2,1*%
%TO.N,Net-(MT1-6-OC)*%
X125450000Y-73500000D03*
%TO.P,R2,2*%
%TO.N,GND*%
X127500000Y-73500000D03*
%TD*%
D12*
%TO.P,MT1,1,1-SW*%
%TO.N,Net-(D2-A)*%
X118862500Y-72550000D03*
%TO.P,MT1,2,2-GND*%
%TO.N,GND*%
X118862500Y-73500000D03*
%TO.P,MT1,3,3-FB*%
%TO.N,Net-(MT1-3-FB)*%
X118862500Y-74450000D03*
%TO.P,MT1,4,4-EN*%
%TO.N,VCC*%
X121137500Y-74450000D03*
%TO.P,MT1,5,5-VIN*%
X121137500Y-73500000D03*
%TO.P,MT1,6,6-OC*%
%TO.N,Net-(MT1-6-OC)*%
X121137500Y-72550000D03*
%TD*%
D13*
%TO.P,L1,1,1*%
%TO.N,VCC*%
X118937500Y-64000000D03*
%TO.P,L1,2,2*%
%TO.N,Net-(D2-A)*%
X121062500Y-64000000D03*
%TD*%
D14*
%TO.P,J1,1,Pin_1*%
%TO.N,+5V*%
X106025000Y-69975000D03*
D15*
%TO.P,J1,2,Pin_2*%
%TO.N,VCC*%
X106025000Y-72515000D03*
%TO.P,J1,3,Pin_3*%
%TO.N,GND*%
X106025000Y-75055000D03*
%TD*%
D16*
%TO.P,D2,1,K*%
%TO.N,+5V*%
X127800000Y-64000000D03*
%TO.P,D2,2,A*%
%TO.N,Net-(D2-A)*%
X124500000Y-64000000D03*
%TD*%
D17*
%TO.P,C2,1*%
%TO.N,+5V*%
X113500000Y-84500000D03*
D18*
%TO.P,C2,2*%
%TO.N,GND*%
X115500000Y-84500000D03*
%TD*%
D17*
%TO.P,C1,1*%
%TO.N,VCC*%
X105044888Y-84500000D03*
D18*
%TO.P,C1,2*%
%TO.N,GND*%
X107044888Y-84500000D03*
%TD*%
D19*
%TO.N,+5V*%
X129500000Y-64000000D03*
%TO.N,Net-(MT1-3-FB)*%
X129000000Y-81500000D03*
X116000000Y-74500000D03*
%TD*%
D20*
%TO.N,+5V*%
X127800000Y-64000000D02*
X129500000Y-64000000D01*
%TO.N,VCC*%
X118937500Y-64000000D02*
X114540000Y-64000000D01*
X114540000Y-64000000D02*
X106025000Y-72515000D01*
%TO.N,Net-(D2-A)*%
X123000000Y-64000000D02*
X124500000Y-64000000D01*
X123000000Y-68412500D02*
X123000000Y-64000000D01*
X118862500Y-72550000D02*
X123000000Y-68412500D01*
X123000000Y-64000000D02*
X121062500Y-64000000D01*
%TO.N,Net-(MT1-3-FB)*%
X116000000Y-74500000D02*
X116050000Y-74450000D01*
X116050000Y-74450000D02*
X118862500Y-74450000D01*
X129000000Y-83500000D02*
X129000000Y-81500000D01*
X127025000Y-83500000D02*
X129000000Y-83500000D01*
X129000000Y-83500000D02*
X131475000Y-83500000D01*
%TO.N,+5V*%
X124975000Y-83500000D02*
X116097760Y-83500000D01*
X116097760Y-83500000D02*
X106263760Y-73666000D01*
X104874000Y-71126000D02*
X106025000Y-69975000D01*
X106263760Y-73666000D02*
X105548240Y-73666000D01*
X105548240Y-73666000D02*
X104874000Y-72991760D01*
X104874000Y-72991760D02*
X104874000Y-71126000D01*
%TO.N,Net-(MT1-6-OC)*%
X121137500Y-72550000D02*
X124500000Y-72550000D01*
X124500000Y-72550000D02*
X125450000Y-73500000D01*
%TO.N,Net-(D1-K)*%
X107875000Y-62000000D02*
X111450000Y-62000000D01*
%TO.N,+5V*%
X106025000Y-69975000D02*
X106025000Y-62100000D01*
X106025000Y-62100000D02*
X106125000Y-62000000D01*
%TO.N,VCC*%
X121137500Y-74450000D02*
X119381500Y-76206000D01*
X119381500Y-76206000D02*
X109716000Y-76206000D01*
X109716000Y-76206000D02*
X106025000Y-72515000D01*
X121137500Y-73500000D02*
X121137500Y-74450000D01*
%TD*%
%TA.AperFunction,Conductor*%
%TO.N,GND*%
G36*
X134942539Y-57520185D02*
G01*
X134988294Y-57572989D01*
X134999500Y-57624500D01*
X134999500Y-89375500D01*
X134979815Y-89442539D01*
X134927011Y-89488294D01*
X134875500Y-89499500D01*
X102624500Y-89499500D01*
X102557461Y-89479815D01*
X102511706Y-89427011D01*
X102500500Y-89375500D01*
X102500500Y-83652135D01*
X103744388Y-83652135D01*
X103744388Y-85347870D01*
X103744389Y-85347876D01*
X103750796Y-85407483D01*
X103801090Y-85542328D01*
X103801094Y-85542335D01*
X103887340Y-85657544D01*
X103887343Y-85657547D01*
X104002552Y-85743793D01*
X104002559Y-85743797D01*
X104137405Y-85794091D01*
X104137404Y-85794091D01*
X104144332Y-85794835D01*
X104197015Y-85800500D01*
X105892760Y-85800499D01*
X105952371Y-85794091D01*
X106087219Y-85743796D01*
X106202434Y-85657546D01*
X106209118Y-85648616D01*
X106265047Y-85606746D01*
X106334739Y-85601759D01*
X106364680Y-85612441D01*
X106545856Y-85704755D01*
X106740470Y-85767990D01*
X106942571Y-85800000D01*
X107147205Y-85800000D01*
X107349305Y-85767990D01*
X107543919Y-85704755D01*
X107726237Y-85611859D01*
X107770809Y-85579474D01*
X107091335Y-84900000D01*
X107097549Y-84900000D01*
X107199282Y-84872741D01*
X107290494Y-84820080D01*
X107364968Y-84745606D01*
X107417629Y-84654394D01*
X107444888Y-84552661D01*
X107444888Y-84546447D01*
X108124362Y-85225921D01*
X108156747Y-85181349D01*
X108249643Y-84999031D01*
X108312878Y-84804417D01*
X108344888Y-84602317D01*
X108344888Y-84397682D01*
X108312878Y-84195582D01*
X108249643Y-84000968D01*
X108156747Y-83818650D01*
X108124362Y-83774077D01*
X108124362Y-83774076D01*
X107444888Y-84453551D01*
X107444888Y-84447339D01*
X107417629Y-84345606D01*
X107364968Y-84254394D01*
X107290494Y-84179920D01*
X107199282Y-84127259D01*
X107097549Y-84100000D01*
X107091334Y-84100000D01*
X107770810Y-83420524D01*
X107770809Y-83420523D01*
X107726247Y-83388147D01*
X107726238Y-83388141D01*
X107543919Y-83295244D01*
X107349305Y-83232009D01*
X107147205Y-83200000D01*
X106942571Y-83200000D01*
X106740470Y-83232009D01*
X106545853Y-83295245D01*
X106364679Y-83387558D01*
X106296010Y-83400454D01*
X106231270Y-83374177D01*
X106209122Y-83351388D01*
X106202434Y-83342454D01*
X106202430Y-83342451D01*
X106087223Y-83256206D01*
X106087216Y-83256202D01*
X105952370Y-83205908D01*
X105952371Y-83205908D01*
X105892771Y-83199501D01*
X105892769Y-83199500D01*
X105892761Y-83199500D01*
X105892752Y-83199500D01*
X104197017Y-83199500D01*
X104197011Y-83199501D01*
X104137404Y-83205908D01*
X104002559Y-83256202D01*
X104002552Y-83256206D01*
X103887343Y-83342452D01*
X103887340Y-83342455D01*
X103801094Y-83457664D01*
X103801090Y-83457671D01*
X103750796Y-83592517D01*
X103744389Y-83652116D01*
X103744388Y-83652135D01*
X102500500Y-83652135D01*
X102500500Y-73070814D01*
X104273498Y-73070814D01*
X104314423Y-73223546D01*
X104328212Y-73247427D01*
X104328213Y-73247432D01*
X104328215Y-73247432D01*
X104388449Y-73351762D01*
X104393479Y-73360474D01*
X104393481Y-73360477D01*
X104512349Y-73479345D01*
X104512355Y-73479350D01*
X105063379Y-74030374D01*
X105063389Y-74030385D01*
X105067719Y-74034715D01*
X105067720Y-74034716D01*
X105179524Y-74146520D01*
X105179526Y-74146521D01*
X105179530Y-74146524D01*
X105267705Y-74197431D01*
X105316456Y-74225577D01*
X105414113Y-74251744D01*
X105469182Y-74266500D01*
X105469183Y-74266500D01*
X105546178Y-74266500D01*
X105553606Y-74267400D01*
X105579105Y-74278366D01*
X105605731Y-74286185D01*
X105615399Y-74293975D01*
X105617792Y-74295005D01*
X105619120Y-74296974D01*
X105626373Y-74302819D01*
X105895591Y-74572037D01*
X105832007Y-74589075D01*
X105717993Y-74654901D01*
X105624901Y-74747993D01*
X105559075Y-74862007D01*
X105542037Y-74925591D01*
X104909728Y-74293282D01*
X104909727Y-74293282D01*
X104870380Y-74347439D01*
X104773904Y-74536782D01*
X104708242Y-74738869D01*
X104708242Y-74738872D01*
X104675000Y-74948753D01*
X104675000Y-75161246D01*
X104708242Y-75371127D01*
X104708242Y-75371130D01*
X104773904Y-75573217D01*
X104870375Y-75762550D01*
X104909728Y-75816716D01*
X105542037Y-75184408D01*
X105559075Y-75247993D01*
X105624901Y-75362007D01*
X105717993Y-75455099D01*
X105832007Y-75520925D01*
X105895590Y-75537962D01*
X105263282Y-76170269D01*
X105263282Y-76170270D01*
X105317449Y-76209624D01*
X105506782Y-76306095D01*
X105708870Y-76371757D01*
X105918754Y-76405000D01*
X106131246Y-76405000D01*
X106341127Y-76371757D01*
X106341130Y-76371757D01*
X106543217Y-76306095D01*
X106732554Y-76209622D01*
X106786716Y-76170270D01*
X106786717Y-76170270D01*
X106154408Y-75537962D01*
X106217993Y-75520925D01*
X106332007Y-75455099D01*
X106425099Y-75362007D01*
X106490925Y-75247993D01*
X106507962Y-75184408D01*
X107140270Y-75816717D01*
X107140270Y-75816716D01*
X107179624Y-75762552D01*
X107214019Y-75695047D01*
X107261992Y-75644251D01*
X107329813Y-75627455D01*
X107395948Y-75649992D01*
X107412185Y-75663660D01*
X114908639Y-83160114D01*
X114942124Y-83221437D01*
X114937140Y-83291129D01*
X114895268Y-83347062D01*
X114877253Y-83358280D01*
X114819792Y-83387558D01*
X114751123Y-83400454D01*
X114686382Y-83374178D01*
X114664234Y-83351388D01*
X114657546Y-83342454D01*
X114657542Y-83342451D01*
X114542335Y-83256206D01*
X114542328Y-83256202D01*
X114407482Y-83205908D01*
X114407483Y-83205908D01*
X114347883Y-83199501D01*
X114347881Y-83199500D01*
X114347873Y-83199500D01*
X114347864Y-83199500D01*
X112652129Y-83199500D01*
X112652123Y-83199501D01*
X112592516Y-83205908D01*
X112457671Y-83256202D01*
X112457664Y-83256206D01*
X112342455Y-83342452D01*
X112342452Y-83342455D01*
X112256206Y-83457664D01*
X112256202Y-83457671D01*
X112205908Y-83592517D01*
X112199501Y-83652116D01*
X112199500Y-83652135D01*
X112199500Y-85347870D01*
X112199501Y-85347876D01*
X112205908Y-85407483D01*
X112256202Y-85542328D01*
X112256206Y-85542335D01*
X112342452Y-85657544D01*
X112342455Y-85657547D01*
X112457664Y-85743793D01*
X112457671Y-85743797D01*
X112592517Y-85794091D01*
X112592516Y-85794091D01*
X112599444Y-85794835D01*
X112652127Y-85800500D01*
X114347872Y-85800499D01*
X114407483Y-85794091D01*
X114542331Y-85743796D01*
X114657546Y-85657546D01*
X114664230Y-85648616D01*
X114720159Y-85606746D01*
X114789851Y-85601759D01*
X114819792Y-85612441D01*
X115000968Y-85704755D01*
X115195582Y-85767990D01*
X115397683Y-85800000D01*
X115602317Y-85800000D01*
X115804417Y-85767990D01*
X115999031Y-85704755D01*
X116181349Y-85611859D01*
X116225921Y-85579474D01*
X115546447Y-84900000D01*
X115552661Y-84900000D01*
X115654394Y-84872741D01*
X115745606Y-84820080D01*
X115820080Y-84745606D01*
X115872741Y-84654394D01*
X115900000Y-84552661D01*
X115900000Y-84546447D01*
X116579474Y-85225921D01*
X116611859Y-85181349D01*
X116704755Y-84999031D01*
X116767990Y-84804417D01*
X116800000Y-84602317D01*
X116800000Y-84397682D01*
X116775643Y-84243898D01*
X116784598Y-84174604D01*
X116829594Y-84121152D01*
X116896345Y-84100513D01*
X116898116Y-84100500D01*
X123750501Y-84100500D01*
X123817540Y-84120185D01*
X123863295Y-84172989D01*
X123874501Y-84224500D01*
X123874501Y-85325018D01*
X123885000Y-85427796D01*
X123885001Y-85427799D01*
X123922953Y-85542328D01*
X123940186Y-85594334D01*
X124032288Y-85743656D01*
X124156344Y-85867712D01*
X124305666Y-85959814D01*
X124472203Y-86014999D01*
X124574991Y-86025500D01*
X125375008Y-86025499D01*
X125375016Y-86025498D01*
X125375019Y-86025498D01*
X125431302Y-86019748D01*
X125477797Y-86014999D01*
X125644334Y-85959814D01*
X125793656Y-85867712D01*
X125912319Y-85749049D01*
X125973642Y-85715564D01*
X126043334Y-85720548D01*
X126087681Y-85749049D01*
X126206344Y-85867712D01*
X126355666Y-85959814D01*
X126522203Y-86014999D01*
X126624991Y-86025500D01*
X127425008Y-86025499D01*
X127425016Y-86025498D01*
X127425019Y-86025498D01*
X127481302Y-86019748D01*
X127527797Y-86014999D01*
X127694334Y-85959814D01*
X127843656Y-85867712D01*
X127967712Y-85743656D01*
X128059814Y-85594334D01*
X128114999Y-85427797D01*
X128125500Y-85325009D01*
X128125500Y-84224500D01*
X128145185Y-84157461D01*
X128197989Y-84111706D01*
X128249500Y-84100500D01*
X128920943Y-84100500D01*
X130250501Y-84100500D01*
X130317540Y-84120185D01*
X130363295Y-84172989D01*
X130374501Y-84224500D01*
X130374501Y-85325018D01*
X130385000Y-85427796D01*
X130385001Y-85427799D01*
X130422953Y-85542328D01*
X130440186Y-85594334D01*
X130532288Y-85743656D01*
X130656344Y-85867712D01*
X130805666Y-85959814D01*
X130972203Y-86014999D01*
X131074991Y-86025500D01*
X131875008Y-86025499D01*
X131875016Y-86025498D01*
X131875019Y-86025498D01*
X131931302Y-86019748D01*
X131977797Y-86014999D01*
X132144334Y-85959814D01*
X132293656Y-85867712D01*
X132412675Y-85748692D01*
X132473994Y-85715210D01*
X132543686Y-85720194D01*
X132588034Y-85748695D01*
X132706654Y-85867315D01*
X132855875Y-85959356D01*
X132855880Y-85959358D01*
X133022302Y-86014505D01*
X133022309Y-86014506D01*
X133125019Y-86024999D01*
X133274999Y-86024999D01*
X133775000Y-86024999D01*
X133924972Y-86024999D01*
X133924986Y-86024998D01*
X134027697Y-86014505D01*
X134194119Y-85959358D01*
X134194124Y-85959356D01*
X134343345Y-85867315D01*
X134467315Y-85743345D01*
X134559356Y-85594124D01*
X134559358Y-85594119D01*
X134614505Y-85427697D01*
X134614506Y-85427690D01*
X134624999Y-85324986D01*
X134625000Y-85324973D01*
X134625000Y-83750000D01*
X133775000Y-83750000D01*
X133775000Y-86024999D01*
X133274999Y-86024999D01*
X133275000Y-86024998D01*
X133275000Y-83250000D01*
X133775000Y-83250000D01*
X134624999Y-83250000D01*
X134624999Y-81675028D01*
X134624998Y-81675013D01*
X134614505Y-81572302D01*
X134559358Y-81405880D01*
X134559356Y-81405875D01*
X134467315Y-81256654D01*
X134343345Y-81132684D01*
X134194124Y-81040643D01*
X134194119Y-81040641D01*
X134027697Y-80985494D01*
X134027690Y-80985493D01*
X133924986Y-80975000D01*
X133775000Y-80975000D01*
X133775000Y-83250000D01*
X133275000Y-83250000D01*
X133275000Y-80975000D01*
X133125027Y-80975000D01*
X133125012Y-80975001D01*
X133022302Y-80985494D01*
X132855880Y-81040641D01*
X132855875Y-81040643D01*
X132706657Y-81132682D01*
X132588034Y-81251305D01*
X132526711Y-81284789D01*
X132457019Y-81279805D01*
X132412672Y-81251304D01*
X132293657Y-81132289D01*
X132293656Y-81132288D01*
X132144334Y-81040186D01*
X131977797Y-80985001D01*
X131977795Y-80985000D01*
X131875010Y-80974500D01*
X131074998Y-80974500D01*
X131074980Y-80974501D01*
X130972203Y-80985000D01*
X130972200Y-80985001D01*
X130805668Y-81040185D01*
X130805663Y-81040187D01*
X130656342Y-81132289D01*
X130532289Y-81256342D01*
X130440187Y-81405663D01*
X130440185Y-81405668D01*
X130440115Y-81405880D01*
X130385001Y-81572203D01*
X130385001Y-81572204D01*
X130385000Y-81572204D01*
X130374500Y-81674983D01*
X130374500Y-82775500D01*
X130354815Y-82842539D01*
X130302011Y-82888294D01*
X130250500Y-82899500D01*
X129724500Y-82899500D01*
X129657461Y-82879815D01*
X129611706Y-82827011D01*
X129600500Y-82775500D01*
X129600500Y-82079765D01*
X129620185Y-82012726D01*
X129621398Y-82010874D01*
X129646162Y-81973813D01*
X129709394Y-81879179D01*
X129769737Y-81733497D01*
X129800500Y-81578842D01*
X129800500Y-81421158D01*
X129800500Y-81421155D01*
X129800499Y-81421153D01*
X129772383Y-81279805D01*
X129769737Y-81266503D01*
X129769735Y-81266498D01*
X129709397Y-81120827D01*
X129709390Y-81120814D01*
X129621789Y-80989711D01*
X129621786Y-80989707D01*
X129510292Y-80878213D01*
X129510288Y-80878210D01*
X129379185Y-80790609D01*
X129379172Y-80790602D01*
X129233501Y-80730264D01*
X129233489Y-80730261D01*
X129078845Y-80699500D01*
X129078842Y-80699500D01*
X128921158Y-80699500D01*
X128921155Y-80699500D01*
X128766510Y-80730261D01*
X128766498Y-80730264D01*
X128620827Y-80790602D01*
X128620814Y-80790609D01*
X128489711Y-80878210D01*
X128489707Y-80878213D01*
X128378213Y-80989707D01*
X128378210Y-80989711D01*
X128290609Y-81120814D01*
X128290602Y-81120827D01*
X128230264Y-81266498D01*
X128230260Y-81266512D01*
X128229309Y-81271293D01*
X128196918Y-81333201D01*
X128136199Y-81367769D01*
X128066430Y-81364023D01*
X128009762Y-81323151D01*
X128002155Y-81312186D01*
X127976932Y-81271293D01*
X127967712Y-81256344D01*
X127843656Y-81132288D01*
X127694334Y-81040186D01*
X127527797Y-80985001D01*
X127527795Y-80985000D01*
X127425010Y-80974500D01*
X126624998Y-80974500D01*
X126624980Y-80974501D01*
X126522203Y-80985000D01*
X126522200Y-80985001D01*
X126355668Y-81040185D01*
X126355663Y-81040187D01*
X126206342Y-81132289D01*
X126087681Y-81250951D01*
X126026358Y-81284436D01*
X125956666Y-81279452D01*
X125912319Y-81250951D01*
X125793657Y-81132289D01*
X125793656Y-81132288D01*
X125644334Y-81040186D01*
X125477797Y-80985001D01*
X125477795Y-80985000D01*
X125375010Y-80974500D01*
X124574998Y-80974500D01*
X124574980Y-80974501D01*
X124472203Y-80985000D01*
X124472200Y-80985001D01*
X124305668Y-81040185D01*
X124305663Y-81040187D01*
X124156342Y-81132289D01*
X124032289Y-81256342D01*
X123940187Y-81405663D01*
X123940185Y-81405668D01*
X123940115Y-81405880D01*
X123885001Y-81572203D01*
X123885001Y-81572204D01*
X123885000Y-81572204D01*
X123874500Y-81674983D01*
X123874500Y-82775500D01*
X123854815Y-82842539D01*
X123802011Y-82888294D01*
X123750500Y-82899500D01*
X116397857Y-82899500D01*
X116330818Y-82879815D01*
X116310176Y-82863181D01*
X110465176Y-77018181D01*
X110431691Y-76956858D01*
X110436675Y-76887166D01*
X110478547Y-76831233D01*
X110544011Y-76806816D01*
X110552857Y-76806500D01*
X119294831Y-76806500D01*
X119294847Y-76806501D01*
X119302443Y-76806501D01*
X119460554Y-76806501D01*
X119460557Y-76806501D01*
X119613285Y-76765577D01*
X119663404Y-76736639D01*
X119750216Y-76686520D01*
X119862020Y-76574716D01*
X119862020Y-76574714D01*
X119872228Y-76564507D01*
X119872229Y-76564504D01*
X121149916Y-75286819D01*
X121211239Y-75253334D01*
X121237597Y-75250500D01*
X121715686Y-75250500D01*
X121715694Y-75250500D01*
X121752569Y-75247598D01*
X121752571Y-75247597D01*
X121752573Y-75247597D01*
X121794191Y-75235505D01*
X121910398Y-75201744D01*
X122051865Y-75118081D01*
X122168081Y-75001865D01*
X122251744Y-74860398D01*
X122288611Y-74733501D01*
X122297597Y-74702573D01*
X122297598Y-74702567D01*
X122300499Y-74665701D01*
X122300500Y-74665694D01*
X122300500Y-74234306D01*
X122297598Y-74197431D01*
X122275338Y-74120814D01*
X122251745Y-74039606D01*
X122251744Y-74039602D01*
X122250871Y-74038126D01*
X122250538Y-74036816D01*
X122248646Y-74032443D01*
X122249351Y-74032137D01*
X122233685Y-73970403D01*
X122249139Y-73917770D01*
X122248646Y-73917557D01*
X122250376Y-73913558D01*
X122250871Y-73911874D01*
X122251744Y-73910398D01*
X122297598Y-73752569D01*
X122300500Y-73715694D01*
X122300500Y-73284306D01*
X122300497Y-73284272D01*
X122300494Y-73284222D01*
X122300496Y-73284212D01*
X122300404Y-73281868D01*
X122300993Y-73281844D01*
X122314862Y-73215845D01*
X122363916Y-73166091D01*
X122424112Y-73150500D01*
X124199903Y-73150500D01*
X124229343Y-73159144D01*
X124259330Y-73165668D01*
X124264345Y-73169422D01*
X124266942Y-73170185D01*
X124287584Y-73186819D01*
X124313181Y-73212416D01*
X124346666Y-73273739D01*
X124349500Y-73300097D01*
X124349500Y-75325001D01*
X124349501Y-75325018D01*
X124360000Y-75427796D01*
X124360001Y-75427799D01*
X124412363Y-75585815D01*
X124415186Y-75594334D01*
X124507288Y-75743656D01*
X124631344Y-75867712D01*
X124780666Y-75959814D01*
X124947203Y-76014999D01*
X125049991Y-76025500D01*
X125850008Y-76025499D01*
X125850016Y-76025498D01*
X125850019Y-76025498D01*
X125906302Y-76019748D01*
X125952797Y-76014999D01*
X126119334Y-75959814D01*
X126268656Y-75867712D01*
X126387675Y-75748692D01*
X126448994Y-75715210D01*
X126518686Y-75720194D01*
X126563034Y-75748695D01*
X126681654Y-75867315D01*
X126830875Y-75959356D01*
X126830880Y-75959358D01*
X126997302Y-76014505D01*
X126997309Y-76014506D01*
X127100019Y-76024999D01*
X127249999Y-76024999D01*
X127750000Y-76024999D01*
X127899972Y-76024999D01*
X127899986Y-76024998D01*
X128002697Y-76014505D01*
X128169119Y-75959358D01*
X128169124Y-75959356D01*
X128318345Y-75867315D01*
X128442315Y-75743345D01*
X128534356Y-75594124D01*
X128534358Y-75594119D01*
X128589505Y-75427697D01*
X128589506Y-75427690D01*
X128599999Y-75324986D01*
X128600000Y-75324973D01*
X128600000Y-73750000D01*
X127750000Y-73750000D01*
X127750000Y-76024999D01*
X127249999Y-76024999D01*
X127250000Y-76024998D01*
X127250000Y-73250000D01*
X127750000Y-73250000D01*
X128599999Y-73250000D01*
X128599999Y-71675028D01*
X128599998Y-71675013D01*
X128589505Y-71572302D01*
X128534358Y-71405880D01*
X128534356Y-71405875D01*
X128442315Y-71256654D01*
X128318345Y-71132684D01*
X128169124Y-71040643D01*
X128169119Y-71040641D01*
X128002697Y-70985494D01*
X128002690Y-70985493D01*
X127899986Y-70975000D01*
X127750000Y-70975000D01*
X127750000Y-73250000D01*
X127250000Y-73250000D01*
X127250000Y-70975000D01*
X127100027Y-70975000D01*
X127100012Y-70975001D01*
X126997302Y-70985494D01*
X126830880Y-71040641D01*
X126830875Y-71040643D01*
X126681657Y-71132682D01*
X126563034Y-71251305D01*
X126501711Y-71284789D01*
X126432019Y-71279805D01*
X126387672Y-71251304D01*
X126268657Y-71132289D01*
X126268656Y-71132288D01*
X126119334Y-71040186D01*
X125952797Y-70985001D01*
X125952795Y-70985000D01*
X125850010Y-70974500D01*
X125049998Y-70974500D01*
X125049980Y-70974501D01*
X124947203Y-70985000D01*
X124947200Y-70985001D01*
X124780668Y-71040185D01*
X124780663Y-71040187D01*
X124631342Y-71132289D01*
X124507289Y-71256342D01*
X124415187Y-71405663D01*
X124415185Y-71405668D01*
X124415115Y-71405880D01*
X124360001Y-71572203D01*
X124360001Y-71572204D01*
X124360000Y-71572204D01*
X124349500Y-71674983D01*
X124349500Y-71825500D01*
X124329815Y-71892539D01*
X124277011Y-71938294D01*
X124225500Y-71949500D01*
X122170808Y-71949500D01*
X122103769Y-71929815D01*
X122083126Y-71913180D01*
X122051870Y-71881923D01*
X122051862Y-71881917D01*
X121910396Y-71798255D01*
X121910393Y-71798254D01*
X121752573Y-71752402D01*
X121752567Y-71752401D01*
X121715701Y-71749500D01*
X121715694Y-71749500D01*
X120811596Y-71749500D01*
X120744557Y-71729815D01*
X120698802Y-71677011D01*
X120688858Y-71607853D01*
X120717883Y-71544297D01*
X120723915Y-71537819D01*
X121221549Y-71040185D01*
X123480520Y-68781216D01*
X123559577Y-68644284D01*
X123600501Y-68491557D01*
X123600501Y-68333442D01*
X123600501Y-68325847D01*
X123600500Y-68325829D01*
X123600500Y-65025874D01*
X123620185Y-64958835D01*
X123672989Y-64913080D01*
X123742147Y-64903136D01*
X123805703Y-64932161D01*
X123812181Y-64938193D01*
X123821955Y-64947967D01*
X123821959Y-64947970D01*
X123966294Y-65036998D01*
X123966297Y-65036999D01*
X123966303Y-65037003D01*
X124127292Y-65090349D01*
X124226655Y-65100500D01*
X124773344Y-65100499D01*
X124773352Y-65100498D01*
X124773355Y-65100498D01*
X124827760Y-65094940D01*
X124872708Y-65090349D01*
X125033697Y-65037003D01*
X125178044Y-64947968D01*
X125297968Y-64828044D01*
X125387003Y-64683697D01*
X125440349Y-64522708D01*
X125450500Y-64423345D01*
X125450499Y-63576656D01*
X125450498Y-63576647D01*
X126849500Y-63576647D01*
X126849500Y-64423337D01*
X126849501Y-64423355D01*
X126859650Y-64522707D01*
X126859651Y-64522710D01*
X126912996Y-64683694D01*
X126913001Y-64683705D01*
X127002029Y-64828040D01*
X127002032Y-64828044D01*
X127121955Y-64947967D01*
X127121959Y-64947970D01*
X127266294Y-65036998D01*
X127266297Y-65036999D01*
X127266303Y-65037003D01*
X127427292Y-65090349D01*
X127526655Y-65100500D01*
X128073344Y-65100499D01*
X128073352Y-65100498D01*
X128073355Y-65100498D01*
X128127760Y-65094940D01*
X128172708Y-65090349D01*
X128333697Y-65037003D01*
X128478044Y-64947968D01*
X128597968Y-64828044D01*
X128684789Y-64687287D01*
X128687000Y-64683702D01*
X128687000Y-64683701D01*
X128687003Y-64683697D01*
X128687004Y-64683692D01*
X128690053Y-64677155D01*
X128691661Y-64677904D01*
X128700278Y-64665459D01*
X128710400Y-64643297D01*
X128719813Y-64637247D01*
X128726184Y-64628047D01*
X128748683Y-64618693D01*
X128769178Y-64605523D01*
X128786282Y-64603063D01*
X128790701Y-64601227D01*
X128804113Y-64600500D01*
X128920234Y-64600500D01*
X128987273Y-64620185D01*
X128989125Y-64621398D01*
X129120814Y-64709390D01*
X129120827Y-64709397D01*
X129266498Y-64769735D01*
X129266503Y-64769737D01*
X129421153Y-64800499D01*
X129421156Y-64800500D01*
X129421158Y-64800500D01*
X129578844Y-64800500D01*
X129578845Y-64800499D01*
X129733497Y-64769737D01*
X129879179Y-64709394D01*
X130010289Y-64621789D01*
X130121789Y-64510289D01*
X130209394Y-64379179D01*
X130269737Y-64233497D01*
X130300500Y-64078842D01*
X130300500Y-63921158D01*
X130300500Y-63921155D01*
X130300499Y-63921153D01*
X130281376Y-63825018D01*
X130269737Y-63766503D01*
X130213728Y-63631284D01*
X130209397Y-63620827D01*
X130209390Y-63620814D01*
X130121789Y-63489711D01*
X130121786Y-63489707D01*
X130010292Y-63378213D01*
X130010288Y-63378210D01*
X129879185Y-63290609D01*
X129879172Y-63290602D01*
X129733501Y-63230264D01*
X129733489Y-63230261D01*
X129578845Y-63199500D01*
X129578842Y-63199500D01*
X129421158Y-63199500D01*
X129421155Y-63199500D01*
X129266510Y-63230261D01*
X129266498Y-63230264D01*
X129120827Y-63290602D01*
X129120814Y-63290609D01*
X128989125Y-63378602D01*
X128971078Y-63384252D01*
X128955169Y-63394477D01*
X128924207Y-63398928D01*
X128922447Y-63399480D01*
X128920234Y-63399500D01*
X128804113Y-63399500D01*
X128737074Y-63379815D01*
X128691319Y-63327011D01*
X128687704Y-63317807D01*
X128687000Y-63316297D01*
X128597968Y-63171956D01*
X128478044Y-63052032D01*
X128478040Y-63052029D01*
X128333705Y-62963001D01*
X128333699Y-62962998D01*
X128333697Y-62962997D01*
X128198529Y-62918207D01*
X128172709Y-62909651D01*
X128073346Y-62899500D01*
X127526662Y-62899500D01*
X127526644Y-62899501D01*
X127427292Y-62909650D01*
X127427289Y-62909651D01*
X127266305Y-62962996D01*
X127266294Y-62963001D01*
X127121959Y-63052029D01*
X127121955Y-63052032D01*
X127002032Y-63171955D01*
X127002029Y-63171959D01*
X126913001Y-63316294D01*
X126912996Y-63316305D01*
X126859651Y-63477290D01*
X126849500Y-63576647D01*
X125450498Y-63576647D01*
X125449903Y-63570826D01*
X125440349Y-63477292D01*
X125440348Y-63477289D01*
X125418205Y-63410465D01*
X125387003Y-63316303D01*
X125386999Y-63316297D01*
X125386998Y-63316294D01*
X125297970Y-63171959D01*
X125297967Y-63171955D01*
X125178044Y-63052032D01*
X125178040Y-63052029D01*
X125033705Y-62963001D01*
X125033699Y-62962998D01*
X125033697Y-62962997D01*
X124898529Y-62918207D01*
X124872709Y-62909651D01*
X124773346Y-62899500D01*
X124226662Y-62899500D01*
X124226644Y-62899501D01*
X124127292Y-62909650D01*
X124127289Y-62909651D01*
X123966305Y-62962996D01*
X123966294Y-62963001D01*
X123821959Y-63052029D01*
X123821955Y-63052032D01*
X123702031Y-63171956D01*
X123612999Y-63316297D01*
X123609947Y-63322845D01*
X123608338Y-63322095D01*
X123573816Y-63371953D01*
X123509299Y-63398773D01*
X123495887Y-63399500D01*
X122055848Y-63399500D01*
X121988809Y-63379815D01*
X121943054Y-63327011D01*
X121938142Y-63314504D01*
X121937549Y-63312713D01*
X121937545Y-63312707D01*
X121937544Y-63312704D01*
X121849283Y-63169612D01*
X121849280Y-63169608D01*
X121730391Y-63050719D01*
X121730387Y-63050716D01*
X121587295Y-62962455D01*
X121587289Y-62962452D01*
X121587287Y-62962451D01*
X121427685Y-62909564D01*
X121427683Y-62909563D01*
X121329181Y-62899500D01*
X121329174Y-62899500D01*
X120795826Y-62899500D01*
X120795818Y-62899500D01*
X120697316Y-62909563D01*
X120697315Y-62909564D01*
X120618219Y-62935773D01*
X120537715Y-62962450D01*
X120537704Y-62962455D01*
X120394612Y-63050716D01*
X120394608Y-63050719D01*
X120275719Y-63169608D01*
X120275716Y-63169612D01*
X120187455Y-63312704D01*
X120187450Y-63312715D01*
X120163745Y-63384252D01*
X120134564Y-63472315D01*
X120134564Y-63472316D01*
X120134563Y-63472316D01*
X120124500Y-63570818D01*
X120124500Y-64429181D01*
X120134563Y-64527683D01*
X120187450Y-64687284D01*
X120187455Y-64687295D01*
X120275716Y-64830387D01*
X120275719Y-64830391D01*
X120394608Y-64949280D01*
X120394612Y-64949283D01*
X120537704Y-65037544D01*
X120537707Y-65037545D01*
X120537713Y-65037549D01*
X120697315Y-65090436D01*
X120795826Y-65100500D01*
X120795831Y-65100500D01*
X121329169Y-65100500D01*
X121329174Y-65100500D01*
X121427685Y-65090436D01*
X121587287Y-65037549D01*
X121730391Y-64949281D01*
X121849281Y-64830391D01*
X121937549Y-64687287D01*
X121938142Y-64685494D01*
X121938880Y-64684428D01*
X121940599Y-64680744D01*
X121941228Y-64681037D01*
X121952012Y-64665463D01*
X121962135Y-64643297D01*
X121971547Y-64637248D01*
X121977915Y-64628051D01*
X122000414Y-64618696D01*
X122020913Y-64605523D01*
X122038013Y-64603064D01*
X122042430Y-64601228D01*
X122055848Y-64600500D01*
X122275500Y-64600500D01*
X122342539Y-64620185D01*
X122388294Y-64672989D01*
X122399500Y-64724500D01*
X122399500Y-68112402D01*
X122379815Y-68179441D01*
X122363181Y-68200083D01*
X118850084Y-71713181D01*
X118788761Y-71746666D01*
X118762403Y-71749500D01*
X118284298Y-71749500D01*
X118247432Y-71752401D01*
X118247426Y-71752402D01*
X118089606Y-71798254D01*
X118089603Y-71798255D01*
X117948137Y-71881917D01*
X117948129Y-71881923D01*
X117831923Y-71998129D01*
X117831917Y-71998137D01*
X117748255Y-72139603D01*
X117748254Y-72139606D01*
X117702402Y-72297426D01*
X117702401Y-72297432D01*
X117699500Y-72334298D01*
X117699500Y-72765701D01*
X117702401Y-72802567D01*
X117702402Y-72802573D01*
X117748254Y-72960393D01*
X117748256Y-72960399D01*
X117749426Y-72962377D01*
X117749869Y-72964126D01*
X117751353Y-72967554D01*
X117750799Y-72967793D01*
X117766603Y-73030102D01*
X117751249Y-73082395D01*
X117751817Y-73082641D01*
X117749827Y-73087239D01*
X117749428Y-73088599D01*
X117748722Y-73089791D01*
X117748716Y-73089806D01*
X117702900Y-73247505D01*
X117702899Y-73247511D01*
X117702704Y-73249998D01*
X117702705Y-73250000D01*
X117968185Y-73250000D01*
X118031306Y-73267268D01*
X118089602Y-73301744D01*
X118131224Y-73313836D01*
X118247426Y-73347597D01*
X118247429Y-73347597D01*
X118247431Y-73347598D01*
X118284306Y-73350500D01*
X118284314Y-73350500D01*
X118738500Y-73350500D01*
X118747185Y-73353050D01*
X118756147Y-73351762D01*
X118780187Y-73362740D01*
X118805539Y-73370185D01*
X118811466Y-73377025D01*
X118819703Y-73380787D01*
X118833992Y-73403021D01*
X118851294Y-73422989D01*
X118853581Y-73433503D01*
X118857477Y-73439565D01*
X118862500Y-73474500D01*
X118862500Y-73525500D01*
X118842815Y-73592539D01*
X118790011Y-73638294D01*
X118738500Y-73649500D01*
X118284298Y-73649500D01*
X118247432Y-73652401D01*
X118247426Y-73652402D01*
X118089606Y-73698254D01*
X118089603Y-73698255D01*
X118031306Y-73732732D01*
X117968185Y-73750000D01*
X117702705Y-73750000D01*
X117689912Y-73763838D01*
X117685645Y-73784152D01*
X117636591Y-73833907D01*
X117576393Y-73849500D01*
X116504935Y-73849500D01*
X116437896Y-73829815D01*
X116436090Y-73828633D01*
X116379179Y-73790606D01*
X116379172Y-73790602D01*
X116233501Y-73730264D01*
X116233489Y-73730261D01*
X116078845Y-73699500D01*
X116078842Y-73699500D01*
X115921158Y-73699500D01*
X115921155Y-73699500D01*
X115766510Y-73730261D01*
X115766498Y-73730264D01*
X115620827Y-73790602D01*
X115620814Y-73790609D01*
X115489711Y-73878210D01*
X115489707Y-73878213D01*
X115378213Y-73989707D01*
X115378210Y-73989711D01*
X115290609Y-74120814D01*
X115290602Y-74120827D01*
X115230264Y-74266498D01*
X115230261Y-74266510D01*
X115199500Y-74421153D01*
X115199500Y-74578846D01*
X115230261Y-74733489D01*
X115230264Y-74733501D01*
X115290602Y-74879172D01*
X115290609Y-74879185D01*
X115378210Y-75010288D01*
X115378213Y-75010292D01*
X115489707Y-75121786D01*
X115489711Y-75121789D01*
X115620814Y-75209390D01*
X115620827Y-75209397D01*
X115720060Y-75250500D01*
X115766503Y-75269737D01*
X115921153Y-75300499D01*
X115921156Y-75300500D01*
X115921158Y-75300500D01*
X116078844Y-75300500D01*
X116078845Y-75300499D01*
X116233497Y-75269737D01*
X116379179Y-75209394D01*
X116510289Y-75121789D01*
X116545258Y-75086820D01*
X116606580Y-75053334D01*
X116632940Y-75050500D01*
X117829192Y-75050500D01*
X117896231Y-75070185D01*
X117916874Y-75086820D01*
X117948129Y-75118076D01*
X117948133Y-75118079D01*
X117948135Y-75118081D01*
X118089602Y-75201744D01*
X118115933Y-75209394D01*
X118247426Y-75247597D01*
X118247429Y-75247597D01*
X118247431Y-75247598D01*
X118284306Y-75250500D01*
X118284314Y-75250500D01*
X119188403Y-75250500D01*
X119255442Y-75270185D01*
X119301197Y-75322989D01*
X119311141Y-75392147D01*
X119282116Y-75455703D01*
X119276084Y-75462181D01*
X119169084Y-75569181D01*
X119107761Y-75602666D01*
X119081403Y-75605500D01*
X110016097Y-75605500D01*
X109949058Y-75585815D01*
X109928416Y-75569181D01*
X107358757Y-72999522D01*
X107325272Y-72938199D01*
X107328507Y-72873523D01*
X107342246Y-72831243D01*
X107375500Y-72621287D01*
X107375500Y-72408713D01*
X107342246Y-72198757D01*
X107328506Y-72156473D01*
X107326512Y-72086635D01*
X107358755Y-72030478D01*
X114752416Y-64636819D01*
X114813739Y-64603334D01*
X114840097Y-64600500D01*
X117944152Y-64600500D01*
X118011191Y-64620185D01*
X118056946Y-64672989D01*
X118061858Y-64685496D01*
X118062450Y-64687284D01*
X118062455Y-64687295D01*
X118150716Y-64830387D01*
X118150719Y-64830391D01*
X118269608Y-64949280D01*
X118269612Y-64949283D01*
X118412704Y-65037544D01*
X118412707Y-65037545D01*
X118412713Y-65037549D01*
X118572315Y-65090436D01*
X118670826Y-65100500D01*
X118670831Y-65100500D01*
X119204169Y-65100500D01*
X119204174Y-65100500D01*
X119302685Y-65090436D01*
X119462287Y-65037549D01*
X119605391Y-64949281D01*
X119724281Y-64830391D01*
X119812549Y-64687287D01*
X119865436Y-64527685D01*
X119875500Y-64429174D01*
X119875500Y-63570826D01*
X119865436Y-63472315D01*
X119812549Y-63312713D01*
X119812545Y-63312707D01*
X119812544Y-63312704D01*
X119724283Y-63169612D01*
X119724280Y-63169608D01*
X119605391Y-63050719D01*
X119605387Y-63050716D01*
X119462295Y-62962455D01*
X119462289Y-62962452D01*
X119462287Y-62962451D01*
X119302685Y-62909564D01*
X119302683Y-62909563D01*
X119204181Y-62899500D01*
X119204174Y-62899500D01*
X118670826Y-62899500D01*
X118670818Y-62899500D01*
X118572316Y-62909563D01*
X118572315Y-62909564D01*
X118493219Y-62935773D01*
X118412715Y-62962450D01*
X118412704Y-62962455D01*
X118269612Y-63050716D01*
X118269608Y-63050719D01*
X118150719Y-63169608D01*
X118150716Y-63169612D01*
X118062455Y-63312704D01*
X118062450Y-63312715D01*
X118061858Y-63314504D01*
X118061119Y-63315571D01*
X118059401Y-63319256D01*
X118058771Y-63318962D01*
X118022085Y-63371949D01*
X117957570Y-63398772D01*
X117944152Y-63399500D01*
X114724000Y-63399500D01*
X114656961Y-63379815D01*
X114611206Y-63327011D01*
X114600000Y-63275500D01*
X114600000Y-62250000D01*
X113624000Y-62250000D01*
X113556961Y-62230315D01*
X113511206Y-62177511D01*
X113500000Y-62126000D01*
X113500000Y-62000000D01*
X113374000Y-62000000D01*
X113306961Y-61980315D01*
X113261206Y-61927511D01*
X113250000Y-61876000D01*
X113250000Y-61750000D01*
X113750000Y-61750000D01*
X114599999Y-61750000D01*
X114599999Y-60175028D01*
X114599998Y-60175013D01*
X114589505Y-60072302D01*
X114534358Y-59905880D01*
X114534356Y-59905875D01*
X114442315Y-59756654D01*
X114318345Y-59632684D01*
X114169124Y-59540643D01*
X114169119Y-59540641D01*
X114002697Y-59485494D01*
X114002690Y-59485493D01*
X113899986Y-59475000D01*
X113750000Y-59475000D01*
X113750000Y-61750000D01*
X113250000Y-61750000D01*
X113250000Y-59475000D01*
X113100027Y-59475000D01*
X113100012Y-59475001D01*
X112997302Y-59485494D01*
X112830880Y-59540641D01*
X112830875Y-59540643D01*
X112681657Y-59632682D01*
X112563034Y-59751305D01*
X112501711Y-59784789D01*
X112432019Y-59779805D01*
X112387672Y-59751304D01*
X112268657Y-59632289D01*
X112268656Y-59632288D01*
X112119334Y-59540186D01*
X111952797Y-59485001D01*
X111952795Y-59485000D01*
X111850010Y-59474500D01*
X111049998Y-59474500D01*
X111049980Y-59474501D01*
X110947203Y-59485000D01*
X110947200Y-59485001D01*
X110780668Y-59540185D01*
X110780663Y-59540187D01*
X110631342Y-59632289D01*
X110507289Y-59756342D01*
X110415187Y-59905663D01*
X110415185Y-59905668D01*
X110415115Y-59905880D01*
X110360001Y-60072203D01*
X110360001Y-60072204D01*
X110360000Y-60072204D01*
X110349500Y-60174983D01*
X110349500Y-61275500D01*
X110329815Y-61342539D01*
X110277011Y-61388294D01*
X110225500Y-61399500D01*
X108874901Y-61399500D01*
X108807862Y-61379815D01*
X108769362Y-61340596D01*
X108745340Y-61301650D01*
X108623351Y-61179661D01*
X108623350Y-61179660D01*
X108476516Y-61089092D01*
X108312753Y-61034826D01*
X108312751Y-61034825D01*
X108211678Y-61024500D01*
X107538330Y-61024500D01*
X107538312Y-61024501D01*
X107437247Y-61034825D01*
X107273484Y-61089092D01*
X107273481Y-61089093D01*
X107126648Y-61179661D01*
X107087681Y-61218629D01*
X107026358Y-61252114D01*
X106956666Y-61247130D01*
X106912319Y-61218629D01*
X106873351Y-61179661D01*
X106873350Y-61179660D01*
X106726516Y-61089092D01*
X106562753Y-61034826D01*
X106562751Y-61034825D01*
X106461678Y-61024500D01*
X105788330Y-61024500D01*
X105788312Y-61024501D01*
X105687247Y-61034825D01*
X105523484Y-61089092D01*
X105523481Y-61089093D01*
X105376648Y-61179661D01*
X105254661Y-61301648D01*
X105164093Y-61448481D01*
X105164092Y-61448484D01*
X105109826Y-61612247D01*
X105109826Y-61612248D01*
X105109825Y-61612248D01*
X105099500Y-61713315D01*
X105099500Y-62286669D01*
X105099501Y-62286687D01*
X105109825Y-62387752D01*
X105146109Y-62497249D01*
X105164092Y-62551516D01*
X105254660Y-62698350D01*
X105376650Y-62820340D01*
X105376656Y-62820343D01*
X105377405Y-62820936D01*
X105377790Y-62821480D01*
X105381757Y-62825447D01*
X105381079Y-62826124D01*
X105417785Y-62877956D01*
X105424500Y-62918207D01*
X105424500Y-68500500D01*
X105404815Y-68567539D01*
X105352011Y-68613294D01*
X105300501Y-68624500D01*
X105127130Y-68624500D01*
X105127123Y-68624501D01*
X105067516Y-68630908D01*
X104932671Y-68681202D01*
X104932664Y-68681206D01*
X104817455Y-68767452D01*
X104817452Y-68767455D01*
X104731206Y-68882664D01*
X104731202Y-68882671D01*
X104680908Y-69017517D01*
X104674501Y-69077116D01*
X104674501Y-69077123D01*
X104674500Y-69077135D01*
X104674500Y-70424902D01*
X104654815Y-70491941D01*
X104638181Y-70512583D01*
X104393481Y-70757282D01*
X104393479Y-70757285D01*
X104343361Y-70844094D01*
X104343359Y-70844096D01*
X104314425Y-70894209D01*
X104314424Y-70894210D01*
X104314423Y-70894215D01*
X104273499Y-71046943D01*
X104273499Y-71205057D01*
X104273499Y-71205059D01*
X104273500Y-71215053D01*
X104273500Y-72905090D01*
X104273499Y-72905108D01*
X104273499Y-73070814D01*
X104273498Y-73070814D01*
X102500500Y-73070814D01*
X102500500Y-57624500D01*
X102520185Y-57557461D01*
X102572989Y-57511706D01*
X102624500Y-57500500D01*
X134875500Y-57500500D01*
X134942539Y-57520185D01*
G37*
%TD.AperFunction*%
%TD*%
M02*
